<?xml version="1.0" encoding="utf-8"?>
<!-- Generator: Adobe Illustrator 24.0.1, SVG Export Plug-In . SVG Version: 6.00 Build 0)  -->
<svg version="1.1" id="Layer_1" xmlns="http://www.w3.org/2000/svg" xmlns:xlink="http://www.w3.org/1999/xlink" x="0px" y="0px"
	 viewBox="0 0 159 64" style="enable-background:new 0 0 159 64;" xml:space="preserve">
<style type="text/css">
	.st0{enable-background:new    ;}
	.st1{fill:#0093C9;}
</style>
<g>
	<g class="st0">
		<path class="st1" d="M25.1,6.2h4v21.3h-4V6.2z M27.1,23.7h5.1c1.3,0,2.3-0.3,3.1-1s1.1-1.5,1.1-2.7v-6.3c0-1.2-0.4-2.1-1.1-2.7
			s-1.7-1-3.1-1h-5.1V6.2h5c1.8,0,3.3,0.3,4.5,0.9s2.2,1.5,2.9,2.6s1,2.5,1,4.1v6c0,1.5-0.3,2.9-0.9,4s-1.6,2-2.8,2.7s-2.8,1-4.6,1
			h-5V23.7z"/>
		<path class="st1" d="M60.1,26.8c-1.2-0.6-2-1.5-2.7-2.7c-0.6-1.2-0.9-2.6-0.9-4.3V6.2h4v13.7c0,1.2,0.3,2.2,1,2.8s1.6,1,2.8,1
			c1.2,0,2.1-0.3,2.8-1s1-1.6,1-2.8V6.2h4v13.6c0,1.7-0.3,3.1-0.9,4.3c-0.6,1.2-1.5,2.1-2.7,2.7c-1.2,0.6-2.6,0.9-4.2,0.9
			S61.2,27.4,60.1,26.8z M66.1,4.6c-0.3-0.1-0.5-0.1-0.8-0.2S64.8,4.1,64.6,4l0,0c0,0-0.1,0-0.1-0.1c0,0-0.1,0-0.1-0.1
			c-0.4-0.2-0.7-0.3-0.9-0.4c-0.2-0.1-0.5-0.1-0.7-0.1c-0.3,0-0.6,0.1-0.8,0.3c-0.2,0.2-0.3,0.4-0.3,0.8v0.3h-3V4.3
			c0-1.6,0.2-2.7,0.7-3.5c0.5-0.8,1.2-1.2,2.2-1.2c0.4,0,0.8,0.1,1.2,0.2s0.8,0.3,1.4,0.5l0,0c0,0,0.1,0,0.2,0.1
			c0.1,0,0.1,0.1,0.2,0.1c0.4,0.2,0.6,0.3,0.8,0.4C65.5,1,65.7,1,65.9,1c0.3,0,0.6-0.1,0.8-0.3c0.2-0.2,0.3-0.5,0.3-0.8v-0.3h3v0.4
			c0,1.6-0.2,2.8-0.7,3.6S68,4.7,67,4.7C66.7,4.7,66.4,4.7,66.1,4.6z"/>
		<path class="st1" d="M88.4,6.2h4.9l7.9,16.3l-0.4,0.4V6.2h3.8v21.3h-4.9l-7.9-16.1l0.4-0.4v16.5h-3.8V6.2z"/>
		<path class="st1" d="M136.6,15.6v4.2c0,1.6-0.3,3-1,4.2s-1.5,2.1-2.7,2.8c-1.2,0.7-2.5,1-4.1,1c-1.6,0-2.9-0.3-4.1-0.9
			c-1.2-0.6-2.1-1.5-2.8-2.6s-1-2.4-1-3.9V14c0-1.6,0.3-3,1-4.2s1.5-2.1,2.7-2.8c1.2-0.7,2.5-1,4.1-1c1.3,0,2.4,0.3,3.5,0.8
			s2,1.3,2.7,2.2s1.2,2.1,1.5,3.3h-4.3c-0.1-0.4-0.4-0.8-0.7-1.2c-0.3-0.3-0.7-0.6-1.2-0.7s-0.9-0.3-1.4-0.3c-0.7,0-1.3,0.2-1.9,0.5
			s-1,0.8-1.3,1.3s-0.4,1.2-0.4,2v6.3c0,0.7,0.2,1.3,0.5,1.8s0.7,0.9,1.3,1.2s1.2,0.4,1.9,0.4c0.7,0,1.4-0.1,1.9-0.4s1-0.7,1.3-1.3
			s0.4-1.2,0.4-2v-0.4h-3.2v-3.9H136.6z"/>
		<path class="st1" d="M33,45.1v3.6h-9.8v-3.6H33z M25.6,36.2h4v21.3h-4V36.2z M27.6,53.7h5.1c1.3,0,2.3-0.3,3.1-1s1.1-1.5,1.1-2.7
			v-6.3c0-1.2-0.4-2.1-1.1-2.7s-1.7-1-3.1-1h-5.1v-3.9h5c1.8,0,3.3,0.3,4.5,0.9s2.2,1.5,2.9,2.6s1,2.5,1,4.1v6c0,1.5-0.3,2.9-0.9,4
			s-1.6,2-2.8,2.7s-2.8,1-4.6,1h-5V53.7z"/>
		<path class="st1" d="M63.3,36.2h2.5L74,57.5h-4.3L64.6,43l-5.1,14.5h-4.3L63.3,36.2z M59.1,50.2h11.2v3.9H59.1V50.2z M69.6,29.8
			c0,1.6-0.4,2.8-1.3,3.6s-2.1,1.3-3.6,1.3h-0.1c-1.6,0-2.8-0.4-3.6-1.3s-1.3-2.1-1.3-3.6l3.3,0c0,0.6,0.1,1.1,0.4,1.5
			s0.7,0.5,1.2,0.5h0.1c0.5,0,0.9-0.2,1.2-0.5s0.4-0.9,0.4-1.5L69.6,29.8z M62.6,60.7h4v4.1h-4V60.7z"/>
		<path class="st1" d="M88.7,36.2h4.9l7.9,16.3l-0.4,0.4V36.2h3.8v21.3h-4.9l-7.9-16.1l0.4-0.4v16.5h-3.8V36.2z"/>
		<path class="st1" d="M136.8,45.6v4.2c0,1.6-0.3,3-1,4.2s-1.5,2.1-2.7,2.8c-1.2,0.7-2.5,1-4.1,1c-1.6,0-2.9-0.3-4.1-0.9
			c-1.2-0.6-2.1-1.5-2.8-2.6s-1-2.4-1-3.9V44c0-1.6,0.3-3,1-4.2s1.5-2.1,2.7-2.8c1.2-0.7,2.5-1,4.1-1c1.3,0,2.4,0.3,3.5,0.8
			s2,1.3,2.7,2.2s1.2,2.1,1.5,3.3h-4.3c-0.1-0.4-0.4-0.8-0.7-1.2c-0.3-0.3-0.7-0.6-1.2-0.7s-0.9-0.3-1.4-0.3c-0.7,0-1.3,0.2-1.9,0.5
			s-1,0.8-1.3,1.3s-0.4,1.2-0.4,2v6.3c0,0.7,0.2,1.3,0.5,1.8s0.7,0.9,1.3,1.2s1.2,0.4,1.9,0.4c0.7,0,1.4-0.1,1.9-0.4s1-0.7,1.3-1.3
			s0.4-1.2,0.4-2v-0.4h-3.2v-3.9H136.8z"/>
	</g>
</g>
<g>
	<g class="st0">
	</g>
</g>
</svg>
